<svg xmlns="http://www.w3.org/2000/svg" height="172" width="960.0" font-size="16" font-family="sans-serif" stroke-width="2">
<g transform="translate(10.0 0)">
<g fill="hsl(0, 100%, 40%)">
<text y="22">Read Index.1,000</text>
<text y="22" x="818.1963941247795" text-anchor="end">2.53 μs</text>
</g>
<g>
<title>2.53 μs ± 177 ns</title>
<rect y="28" rx="5" height="22" width="818.1963941247795" fill="hsl(0, 100%, 80%)" stroke="hsl(0, 100%, 55%)" />
<g stroke="hsl(0, 100%, 40%)"><line x1="761.0446635251323" x2="875.3481247244268" y1="39" y2="39" />
<line x1="761.0446635251323" x2="761.0446635251323" y1="33" y2="45" />
<line x1="875.3481247244268" x2="875.3481247244268" y1="33" y2="45" />
</g>
</g>
<g fill="hsl(120, 100%, 40%)">
<text y="77">Read Index.10,000</text>
<text y="77" x="874.5791032848324" text-anchor="end">2.70 μs</text>
</g>
<g>
<title>2.70 μs ± 202 ns</title>
<rect y="83" rx="5" height="22" width="874.5791032848324" fill="hsl(120, 100%, 80%)" stroke="hsl(120, 100%, 55%)" />
<g stroke="hsl(120, 100%, 40%)"><line x1="809.1582065696648" x2="940.0" y1="94" y2="94" />
<line x1="809.1582065696648" x2="809.1582065696648" y1="88" y2="100" />
<line x1="940.0" x2="940.0" y1="88" y2="100" />
</g>
</g>
<g fill="hsl(240, 100%, 40%)">
<text y="132">Read Index.100,000</text>
<text y="132" x="901.1710551697531" text-anchor="end">2.78 μs</text>
</g>
<g>
<title>2.78 μs ±  87 ns</title>
<rect y="138" rx="5" height="22" width="901.1710551697531" fill="hsl(240, 100%, 80%)" stroke="hsl(240, 100%, 55%)" />
<g stroke="hsl(240, 100%, 40%)"><line x1="873.1326953813933" x2="929.2094149581129" y1="149" y2="149" />
<line x1="873.1326953813933" x2="873.1326953813933" y1="143" y2="155" />
<line x1="929.2094149581129" x2="929.2094149581129" y1="143" y2="155" />
</g>
</g>
</g>
</svg>
