<svg xmlns="http://www.w3.org/2000/svg" height="172" width="960.0" font-size="16" font-family="sans-serif" stroke-width="2">
<g transform="translate(10.0 0)">
<g fill="hsl(0, 100%, 40%)">
<text y="22">Read Index.1,000</text>
<text y="22" x="841.9686984154716" text-anchor="end">1.09 μs</text>
</g>
<g>
<title>1.09 μs ±  48 ns</title>
<rect y="28" rx="5" height="22" width="841.9686984154716" fill="hsl(0, 100%, 80%)" stroke="hsl(0, 100%, 55%)" />
<g stroke="hsl(0, 100%, 40%)"><line x1="804.7752758523217" x2="879.1621209786216" y1="39" y2="39" />
<line x1="804.7752758523217" x2="804.7752758523217" y1="33" y2="45" />
<line x1="879.1621209786216" x2="879.1621209786216" y1="33" y2="45" />
</g>
</g>
<g fill="hsl(120, 100%, 40%)">
<text y="77">Read Index.10,000</text>
<text y="77" x="850.4916100842164" text-anchor="end">1.10 μs</text>
</g>
<g>
<title>1.10 μs ±  94 ns</title>
<rect y="83" rx="5" height="22" width="850.4916100842164" fill="hsl(120, 100%, 80%)" stroke="hsl(120, 100%, 55%)" />
<g stroke="hsl(120, 100%, 40%)"><line x1="777.297755684136" x2="923.6854644842969" y1="94" y2="94" />
<line x1="777.297755684136" x2="777.297755684136" y1="88" y2="100" />
<line x1="923.6854644842969" x2="923.6854644842969" y1="88" y2="100" />
</g>
</g>
<g fill="hsl(240, 100%, 40%)">
<text y="132">Read Index.100,000</text>
<text y="132" x="858.2568951748816" text-anchor="end">1.11 μs</text>
</g>
<g>
<title>1.11 μs ± 106 ns</title>
<rect y="138" rx="5" height="22" width="858.2568951748816" fill="hsl(240, 100%, 80%)" stroke="hsl(240, 100%, 55%)" />
<g stroke="hsl(240, 100%, 40%)"><line x1="776.5137903497632" x2="940.0" y1="149" y2="149" />
<line x1="776.5137903497632" x2="776.5137903497632" y1="143" y2="155" />
<line x1="940.0" x2="940.0" y1="143" y2="155" />
</g>
</g>
</g>
</svg>
