<svg xmlns="http://www.w3.org/2000/svg" height="172" width="960.0" font-size="16" font-family="sans-serif" stroke-width="2">
<g transform="translate(10.0 0)">
<g fill="hsl(0, 100%, 40%)">
<text y="22">Read Index.1,000</text>
<text y="22" x="629.174766232939" text-anchor="end">2.00 μs</text>
</g>
<g>
<title>2.00 μs ± 168 ns</title>
<rect y="28" rx="5" height="22" width="629.174766232939" fill="hsl(0, 100%, 80%)" stroke="hsl(0, 100%, 55%)" />
<g stroke="hsl(0, 100%, 40%)"><line x1="576.2610613980091" x2="682.0884710678688" y1="39" y2="39" />
<line x1="576.2610613980091" x2="576.2610613980091" y1="33" y2="45" />
<line x1="682.0884710678688" x2="682.0884710678688" y1="33" y2="45" />
</g>
</g>
<g fill="hsl(120, 100%, 40%)">
<text y="77">Read Index.10,000</text>
<text y="77" x="872.1744745479721" text-anchor="end">2.77 μs</text>
</g>
<g>
<title>2.77 μs ± 215 ns</title>
<rect y="83" rx="5" height="22" width="872.1744745479721" fill="hsl(120, 100%, 80%)" stroke="hsl(120, 100%, 55%)" />
<g stroke="hsl(120, 100%, 40%)"><line x1="804.3489490959441" x2="940.0" y1="94" y2="94" />
<line x1="804.3489490959441" x2="804.3489490959441" y1="88" y2="100" />
<line x1="940.0" x2="940.0" y1="88" y2="100" />
</g>
</g>
<g fill="hsl(240, 100%, 40%)">
<text y="132">Read Index.100,000</text>
<text y="132" x="668.5683699504135" text-anchor="end">2.12 μs</text>
</g>
<g>
<title>2.12 μs ± 196 ns</title>
<rect y="138" rx="5" height="22" width="668.5683699504135" fill="hsl(240, 100%, 80%)" stroke="hsl(240, 100%, 55%)" />
<g stroke="hsl(240, 100%, 40%)"><line x1="606.6853859126219" x2="730.4513539882051" y1="149" y2="149" />
<line x1="606.6853859126219" x2="606.6853859126219" y1="143" y2="155" />
<line x1="730.4513539882051" x2="730.4513539882051" y1="143" y2="155" />
</g>
</g>
</g>
</svg>
