<svg xmlns="http://www.w3.org/2000/svg" height="172" width="960.0" font-size="16" font-family="sans-serif" stroke-width="2">
<g transform="translate(10.0 0)">
<g fill="hsl(0, 100%, 40%)">
<text y="22">Read Index.1,000</text>
<text y="22" x="858.7701137696573" text-anchor="end">2.89 μs</text>
</g>
<g>
<title>2.89 μs ± 274 ns</title>
<rect y="28" rx="5" height="22" width="858.7701137696573" fill="hsl(0, 100%, 80%)" stroke="hsl(0, 100%, 55%)" />
<g stroke="hsl(0, 100%, 40%)"><line x1="777.5402275393146" x2="940.0" y1="39" y2="39" />
<line x1="777.5402275393146" x2="777.5402275393146" y1="33" y2="45" />
<line x1="940.0" x2="940.0" y1="33" y2="45" />
</g>
</g>
<g fill="hsl(120, 100%, 40%)">
<text y="77">Read Index.10,000</text>
<text y="77" x="463.80916848290167" text-anchor="end">1.56 μs</text>
</g>
<g>
<title>1.56 μs ±  93 ns</title>
<rect y="83" rx="5" height="22" width="463.80916848290167" fill="hsl(120, 100%, 80%)" stroke="hsl(120, 100%, 55%)" />
<g stroke="hsl(120, 100%, 40%)"><line x1="436.18732488561585" x2="491.4310120801875" y1="94" y2="94" />
<line x1="436.18732488561585" x2="436.18732488561585" y1="88" y2="100" />
<line x1="491.4310120801875" x2="491.4310120801875" y1="88" y2="100" />
</g>
</g>
<g fill="hsl(240, 100%, 40%)">
<text y="132">Read Index.100,000</text>
<text y="132" x="786.7901717017367" text-anchor="end">2.65 μs</text>
</g>
<g>
<title>2.65 μs ± 112 ns</title>
<rect y="138" rx="5" height="22" width="786.7901717017367" fill="hsl(240, 100%, 80%)" stroke="hsl(240, 100%, 55%)" />
<g stroke="hsl(240, 100%, 40%)"><line x1="753.4875219203957" x2="820.0928214830776" y1="149" y2="149" />
<line x1="753.4875219203957" x2="753.4875219203957" y1="143" y2="155" />
<line x1="820.0928214830776" x2="820.0928214830776" y1="143" y2="155" />
</g>
</g>
</g>
</svg>
