<svg xmlns="http://www.w3.org/2000/svg" height="172" width="960.0" font-size="16" font-family="sans-serif" stroke-width="2">
<g transform="translate(10.0 0)">
<g fill="hsl(0, 100%, 40%)">
<text y="22">Read Index.1,000</text>
<text y="22" x="867.9230963381546" text-anchor="end">1.58 μs</text>
</g>
<g>
<title>1.58 μs ± 102 ns</title>
<rect y="28" rx="5" height="22" width="867.9230963381546" fill="hsl(0, 100%, 80%)" stroke="hsl(0, 100%, 55%)" />
<g stroke="hsl(0, 100%, 40%)"><line x1="811.9919770787031" x2="923.854215597606" y1="39" y2="39" />
<line x1="811.9919770787031" x2="811.9919770787031" y1="33" y2="45" />
<line x1="923.854215597606" x2="923.854215597606" y1="33" y2="45" />
</g>
</g>
<g fill="hsl(120, 100%, 40%)">
<text y="77">Read Index.10,000</text>
<text y="77" x="872.9916171806898" text-anchor="end">1.59 μs</text>
</g>
<g>
<title>1.59 μs ± 122 ns</title>
<rect y="83" rx="5" height="22" width="872.9916171806898" fill="hsl(120, 100%, 80%)" stroke="hsl(120, 100%, 55%)" />
<g stroke="hsl(120, 100%, 40%)"><line x1="805.9832343613796" x2="940.0" y1="94" y2="94" />
<line x1="805.9832343613796" x2="805.9832343613796" y1="88" y2="100" />
<line x1="940.0" x2="940.0" y1="88" y2="100" />
</g>
</g>
<g fill="hsl(240, 100%, 40%)">
<text y="132">Read Index.100,000</text>
<text y="132" x="867.3140390606194" text-anchor="end">1.58 μs</text>
</g>
<g>
<title>1.58 μs ± 104 ns</title>
<rect y="138" rx="5" height="22" width="867.3140390606194" fill="hsl(240, 100%, 80%)" stroke="hsl(240, 100%, 55%)" />
<g stroke="hsl(240, 100%, 40%)"><line x1="810.4525834367455" x2="924.1754946844933" y1="149" y2="149" />
<line x1="810.4525834367455" x2="810.4525834367455" y1="143" y2="155" />
<line x1="924.1754946844933" x2="924.1754946844933" y1="143" y2="155" />
</g>
</g>
</g>
</svg>
